<?xml version="1.0" encoding="UTF-8"?><svg xmlns="http://www.w3.org/2000/svg" xmlns:xlink="http://www.w3.org/1999/xlink" stroke-dasharray="none" shape-rendering="auto" font-family="'Dialog'" width="1362" text-rendering="auto" fill-opacity="1" contentScriptType="text/ecmascript" color-interpolation="auto" color-rendering="auto" preserveAspectRatio="xMidYMid meet" font-size="12px" xmlns:diagram="http://www.eclipse.org/sirius/diagram/1.1.0" diagram:semanticRoot="platform:/resource/fr.n7.chaiseMinute.samples/exemple_equations.cm#/" viewBox="0 0 1362 178" fill="black" stroke="black" image-rendering="auto" stroke-miterlimit="10" zoomAndPan="magnify" version="1.0" stroke-linecap="square" stroke-linejoin="miter" contentStyleType="text/css" font-style="normal" height="178" stroke-width="1" stroke-dashoffset="0" font-weight="normal" stroke-opacity="1">
    <!--Generated by the Batik Graphics2D SVG Generator-->
    <defs id="genericDefs"/>
    <g>
        <defs id="defs1">
            <linearGradient x1="10" x2="1350" y1="10" gradientUnits="userSpaceOnUse" y2="10" xlink:type="simple" xlink:actuate="onLoad" id="linearGradient1" xlink:show="other" spreadMethod="pad">
                <stop stop-opacity="1" stop-color="rgb(204,242,166)" offset="0%"/>
                <stop stop-opacity="1" stop-color="rgb(204,242,166)" offset="100%"/>
            </linearGradient>
            <linearGradient x1="46" x2="194" y1="46" gradientUnits="userSpaceOnUse" y2="46" xlink:type="simple" xlink:actuate="onLoad" id="linearGradient2" xlink:show="other" spreadMethod="pad">
                <stop stop-opacity="1" stop-color="rgb(194,239,255)" offset="0%"/>
                <stop stop-opacity="1" stop-color="rgb(194,239,255)" offset="100%"/>
            </linearGradient>
            <linearGradient x1="226" x2="374" y1="46" gradientUnits="userSpaceOnUse" y2="46" xlink:type="simple" xlink:actuate="onLoad" id="linearGradient3" xlink:show="other" spreadMethod="pad">
                <stop stop-opacity="1" stop-color="rgb(217,196,215)" offset="0%"/>
                <stop stop-opacity="1" stop-color="rgb(217,196,215)" offset="100%"/>
            </linearGradient>
            <linearGradient x1="434" x2="582" y1="46" gradientUnits="userSpaceOnUse" y2="46" xlink:type="simple" xlink:actuate="onLoad" id="linearGradient4" xlink:show="other" spreadMethod="pad">
                <stop stop-opacity="1" stop-color="rgb(217,196,215)" offset="0%"/>
                <stop stop-opacity="1" stop-color="rgb(217,196,215)" offset="100%"/>
            </linearGradient>
            <linearGradient x1="646" x2="794" y1="46" gradientUnits="userSpaceOnUse" y2="46" xlink:type="simple" xlink:actuate="onLoad" id="linearGradient5" xlink:show="other" spreadMethod="pad">
                <stop stop-opacity="1" stop-color="rgb(217,196,215)" offset="0%"/>
                <stop stop-opacity="1" stop-color="rgb(217,196,215)" offset="100%"/>
            </linearGradient>
            <linearGradient x1="854" x2="1086" y1="46" gradientUnits="userSpaceOnUse" y2="46" xlink:type="simple" xlink:actuate="onLoad" id="linearGradient6" xlink:show="other" spreadMethod="pad">
                <stop stop-opacity="1" stop-color="rgb(252,233,79)" offset="0%"/>
                <stop stop-opacity="1" stop-color="rgb(252,233,79)" offset="100%"/>
            </linearGradient>
            <linearGradient x1="890" x2="1078" y1="82" gradientUnits="userSpaceOnUse" y2="82" xlink:type="simple" xlink:actuate="onLoad" id="linearGradient7" xlink:show="other" spreadMethod="pad">
                <stop stop-opacity="1" stop-color="rgb(253,206,137)" offset="0%"/>
                <stop stop-opacity="1" stop-color="rgb(253,206,137)" offset="100%"/>
            </linearGradient>
            <linearGradient x1="1150" x2="1342" y1="46" gradientUnits="userSpaceOnUse" y2="46" xlink:type="simple" xlink:actuate="onLoad" id="linearGradient8" xlink:show="other" spreadMethod="pad">
                <stop stop-opacity="1" stop-color="rgb(252,233,79)" offset="0%"/>
                <stop stop-opacity="1" stop-color="rgb(252,233,79)" offset="100%"/>
            </linearGradient>
            <linearGradient x1="1186" x2="1334" y1="82" gradientUnits="userSpaceOnUse" y2="82" xlink:type="simple" xlink:actuate="onLoad" id="linearGradient9" xlink:show="other" spreadMethod="pad">
                <stop stop-opacity="1" stop-color="rgb(253,206,137)" offset="0%"/>
                <stop stop-opacity="1" stop-color="rgb(253,206,137)" offset="100%"/>
            </linearGradient>
            <clipPath clipPathUnits="userSpaceOnUse" id="clipPath1">
                <path d="M9 9 L1353 9 L1353 169 L9 169 L9 9 Z"/>
            </clipPath>
            <clipPath clipPathUnits="userSpaceOnUse" id="clipPath2">
                <path d="M9 9 L1351 9 L1351 167 L9 167 L9 9 Z"/>
            </clipPath>
            <clipPath clipPathUnits="userSpaceOnUse" id="clipPath3">
                <path d="M644 14 L719 14 L719 33 L644 33 L644 14 Z"/>
            </clipPath>
            <clipPath clipPathUnits="userSpaceOnUse" id="clipPath4">
                <path d="M45 45 L197 45 L197 117 L45 117 L45 45 Z"/>
            </clipPath>
            <clipPath clipPathUnits="userSpaceOnUse" id="clipPath5">
                <path d="M45 45 L195 45 L195 115 L45 115 L45 45 Z"/>
            </clipPath>
            <clipPath clipPathUnits="userSpaceOnUse" id="clipPath6">
                <path d="M99 50 L143 50 L143 69 L99 69 L99 50 Z"/>
            </clipPath>
            <clipPath clipPathUnits="userSpaceOnUse" id="clipPath7">
                <path d="M225 45 L377 45 L377 117 L225 117 L225 45 Z"/>
            </clipPath>
            <clipPath clipPathUnits="userSpaceOnUse" id="clipPath8">
                <path d="M225 45 L375 45 L375 115 L225 115 L225 45 Z"/>
            </clipPath>
            <clipPath clipPathUnits="userSpaceOnUse" id="clipPath9">
                <path d="M258 50 L346 50 L346 86 L258 86 L258 50 Z"/>
            </clipPath>
            <clipPath clipPathUnits="userSpaceOnUse" id="clipPath10">
                <path d="M258 50 L345 50 L345 86 L258 86 L258 50 Z"/>
            </clipPath>
            <clipPath clipPathUnits="userSpaceOnUse" id="clipPath11">
                <path d="M433 45 L585 45 L585 117 L433 117 L433 45 Z"/>
            </clipPath>
            <clipPath clipPathUnits="userSpaceOnUse" id="clipPath12">
                <path d="M433 45 L583 45 L583 115 L433 115 L433 45 Z"/>
            </clipPath>
            <clipPath clipPathUnits="userSpaceOnUse" id="clipPath13">
                <path d="M465 50 L554 50 L554 86 L465 86 L465 50 Z"/>
            </clipPath>
            <clipPath clipPathUnits="userSpaceOnUse" id="clipPath14">
                <path d="M465 50 L553 50 L553 86 L465 86 L465 50 Z"/>
            </clipPath>
            <clipPath clipPathUnits="userSpaceOnUse" id="clipPath15">
                <path d="M645 45 L797 45 L797 117 L645 117 L645 45 Z"/>
            </clipPath>
            <clipPath clipPathUnits="userSpaceOnUse" id="clipPath16">
                <path d="M645 45 L795 45 L795 115 L645 115 L645 45 Z"/>
            </clipPath>
            <clipPath clipPathUnits="userSpaceOnUse" id="clipPath17">
                <path d="M678 50 L764 50 L764 86 L678 86 L678 50 Z"/>
            </clipPath>
            <clipPath clipPathUnits="userSpaceOnUse" id="clipPath18">
                <path d="M853 45 L1089 45 L1089 161 L853 161 L853 45 Z"/>
            </clipPath>
            <clipPath clipPathUnits="userSpaceOnUse" id="clipPath19">
                <path d="M853 45 L1087 45 L1087 159 L853 159 L853 45 Z"/>
            </clipPath>
            <clipPath clipPathUnits="userSpaceOnUse" id="clipPath20">
                <path d="M940 50 L1003 50 L1003 69 L940 69 L940 50 Z"/>
            </clipPath>
            <clipPath clipPathUnits="userSpaceOnUse" id="clipPath21">
                <path d="M889 81 L1081 81 L1081 153 L889 153 L889 81 Z"/>
            </clipPath>
            <clipPath clipPathUnits="userSpaceOnUse" id="clipPath22">
                <path d="M889 81 L1079 81 L1079 151 L889 151 L889 81 Z"/>
            </clipPath>
            <clipPath clipPathUnits="userSpaceOnUse" id="clipPath23">
                <path d="M890 86 L1082 86 L1082 105 L890 105 L890 86 Z"/>
            </clipPath>
            <clipPath clipPathUnits="userSpaceOnUse" id="clipPath24">
                <path d="M1149 45 L1345 45 L1345 161 L1149 161 L1149 45 Z"/>
            </clipPath>
            <clipPath clipPathUnits="userSpaceOnUse" id="clipPath25">
                <path d="M1149 45 L1343 45 L1343 159 L1149 159 L1149 45 Z"/>
            </clipPath>
            <clipPath clipPathUnits="userSpaceOnUse" id="clipPath26">
                <path d="M1227 50 L1268 50 L1268 69 L1227 69 L1227 50 Z"/>
            </clipPath>
            <clipPath clipPathUnits="userSpaceOnUse" id="clipPath27">
                <path d="M1185 81 L1337 81 L1337 153 L1185 153 L1185 81 Z"/>
            </clipPath>
            <clipPath clipPathUnits="userSpaceOnUse" id="clipPath28">
                <path d="M1185 81 L1335 81 L1335 151 L1185 151 L1185 81 Z"/>
            </clipPath>
            <clipPath clipPathUnits="userSpaceOnUse" id="clipPath29">
                <path d="M1192 86 L1331 86 L1331 105 L1192 105 L1192 86 Z"/>
            </clipPath>
        </defs>
        <g font-size="15px" fill="rgb(131,122,133)" font-family="'Ubuntu'" stroke-linejoin="round" stroke="rgb(131,122,133)" stroke-width="0" stroke-miterlimit="0">
            <rect x="11" y="11" clip-path="url(#clipPath1)" width="1340" rx="0" opacity="0.255" ry="0" height="156" stroke="none"/>
            <rect x="12" y="12" clip-path="url(#clipPath1)" width="1340" rx="0" opacity="0.255" ry="0" height="156" stroke="none"/>
            <rect x="10" y="10" clip-path="url(#clipPath2)" fill="url(#linearGradient1)" width="1340" rx="0" ry="0" height="156" stroke="none"/>
        </g>
        <g font-size="15px" stroke-width="1.1" font-family="'Ubuntu'" stroke-linecap="butt">
            <rect x="10" y="10" clip-path="url(#clipPath2)" fill="none" width="1339" rx="0" ry="0" height="155"/>
            <text x="645" xml:space="preserve" y="29" clip-path="url(#clipPath3)" stroke="none">equations</text>
            <rect x="47" y="47" clip-path="url(#clipPath4)" fill="rgb(131,122,133)" width="148" rx="0" opacity="0.255" ry="0" height="68" stroke="none"/>
            <rect x="48" y="48" clip-path="url(#clipPath4)" fill="rgb(131,122,133)" width="148" rx="0" opacity="0.255" ry="0" height="68" stroke="none"/>
            <rect x="46" y="46" clip-path="url(#clipPath5)" fill="url(#linearGradient2)" width="148" rx="0" ry="0" height="68" stroke="none"/>
            <rect x="46" y="46" clip-path="url(#clipPath5)" fill="none" width="147" rx="0" ry="0" height="67"/>
            <text x="100" xml:space="preserve" y="65" clip-path="url(#clipPath6)" stroke="none">Index</text>
            <rect x="227" y="47" clip-path="url(#clipPath7)" fill="rgb(131,122,133)" width="148" rx="0" opacity="0.255" ry="0" height="68" stroke="none"/>
            <rect x="228" y="48" clip-path="url(#clipPath7)" fill="rgb(131,122,133)" width="148" rx="0" opacity="0.255" ry="0" height="68" stroke="none"/>
            <rect x="226" y="46" clip-path="url(#clipPath8)" fill="url(#linearGradient3)" width="148" rx="0" ry="0" height="68" stroke="none"/>
            <rect x="226" y="46" clip-path="url(#clipPath8)" fill="none" width="147" rx="0" ry="0" height="67"/>
            <text font-style="italic" x="259" xml:space="preserve" y="65" clip-path="url(#clipPath9)" stroke="none">a</text>
            <text font-style="italic" x="259" xml:space="preserve" y="82" clip-path="url(#clipPath10)" stroke="none">from table.a</text>
            <rect x="435" y="47" clip-path="url(#clipPath11)" fill="rgb(131,122,133)" width="148" rx="0" opacity="0.255" ry="0" height="68" stroke="none"/>
            <rect x="436" y="48" clip-path="url(#clipPath11)" fill="rgb(131,122,133)" width="148" rx="0" opacity="0.255" ry="0" height="68" stroke="none"/>
            <rect x="434" y="46" clip-path="url(#clipPath12)" fill="url(#linearGradient4)" width="148" rx="0" ry="0" height="68" stroke="none"/>
            <rect x="434" y="46" clip-path="url(#clipPath12)" fill="none" width="147" rx="0" ry="0" height="67"/>
            <text font-style="italic" x="466" xml:space="preserve" y="65" clip-path="url(#clipPath13)" stroke="none">b</text>
            <text font-style="italic" x="466" xml:space="preserve" y="82" clip-path="url(#clipPath14)" stroke="none">from table.b</text>
            <rect x="647" y="47" clip-path="url(#clipPath15)" fill="rgb(131,122,133)" width="148" rx="0" opacity="0.255" ry="0" height="68" stroke="none"/>
            <rect x="648" y="48" clip-path="url(#clipPath15)" fill="rgb(131,122,133)" width="148" rx="0" opacity="0.255" ry="0" height="68" stroke="none"/>
            <rect x="646" y="46" clip-path="url(#clipPath16)" fill="url(#linearGradient5)" width="148" rx="0" ry="0" height="68" stroke="none"/>
            <rect x="646" y="46" clip-path="url(#clipPath16)" fill="none" width="147" rx="0" ry="0" height="67"/>
            <text font-style="italic" x="679" xml:space="preserve" y="65" clip-path="url(#clipPath17)" stroke="none">c</text>
            <text font-style="italic" x="679" xml:space="preserve" y="82" clip-path="url(#clipPath17)" stroke="none">from table.c</text>
            <rect x="855" y="47" clip-path="url(#clipPath18)" fill="rgb(131,122,133)" width="232" rx="0" opacity="0.255" ry="0" height="112" stroke="none"/>
            <rect x="856" y="48" clip-path="url(#clipPath18)" fill="rgb(131,122,133)" width="232" rx="0" opacity="0.255" ry="0" height="112" stroke="none"/>
            <rect x="854" y="46" clip-path="url(#clipPath19)" fill="url(#linearGradient6)" width="232" rx="0" ry="0" height="112" stroke="none"/>
            <rect x="854" y="46" clip-path="url(#clipPath19)" fill="none" width="231" rx="0" ry="0" height="111"/>
            <text x="941" xml:space="preserve" y="65" clip-path="url(#clipPath20)" stroke="none">Solution</text>
            <rect x="891" y="83" clip-path="url(#clipPath21)" fill="rgb(131,122,133)" width="188" rx="0" opacity="0.255" ry="0" height="68" stroke="none"/>
            <rect x="892" y="84" clip-path="url(#clipPath21)" fill="rgb(131,122,133)" width="188" rx="0" opacity="0.255" ry="0" height="68" stroke="none"/>
            <rect x="890" y="82" clip-path="url(#clipPath22)" fill="url(#linearGradient7)" width="188" rx="0" ry="0" height="68" stroke="none"/>
            <rect x="890" y="82" clip-path="url(#clipPath22)" fill="none" width="187" rx="0" ry="0" height="67"/>
            <text x="891" xml:space="preserve" y="101" clip-path="url(#clipPath23)" stroke="none">[COMPUTE_DELTA, SOLVE]</text>
            <rect x="1151" y="47" clip-path="url(#clipPath24)" fill="rgb(131,122,133)" width="192" rx="0" opacity="0.255" ry="0" height="112" stroke="none"/>
            <rect x="1152" y="48" clip-path="url(#clipPath24)" fill="rgb(131,122,133)" width="192" rx="0" opacity="0.255" ry="0" height="112" stroke="none"/>
            <rect x="1150" y="46" clip-path="url(#clipPath25)" fill="url(#linearGradient8)" width="192" rx="0" ry="0" height="112" stroke="none"/>
            <rect x="1150" y="46" clip-path="url(#clipPath25)" fill="none" width="191" rx="0" ry="0" height="111"/>
            <text x="1228" xml:space="preserve" y="65" clip-path="url(#clipPath26)" stroke="none">delta</text>
            <rect x="1187" y="83" clip-path="url(#clipPath27)" fill="rgb(131,122,133)" width="148" rx="0" opacity="0.255" ry="0" height="68" stroke="none"/>
            <rect x="1188" y="84" clip-path="url(#clipPath27)" fill="rgb(131,122,133)" width="148" rx="0" opacity="0.255" ry="0" height="68" stroke="none"/>
            <rect x="1186" y="82" clip-path="url(#clipPath28)" fill="url(#linearGradient9)" width="148" rx="0" ry="0" height="68" stroke="none"/>
            <rect x="1186" y="82" clip-path="url(#clipPath28)" fill="none" width="147" rx="0" ry="0" height="67"/>
            <text x="1193" xml:space="preserve" y="101" clip-path="url(#clipPath29)" stroke="none">[COMPUTE_DELTA]</text>
        </g>
    </g>
</svg>
