<?xml version="1.0" encoding="UTF-8"?><svg xmlns="http://www.w3.org/2000/svg" xmlns:xlink="http://www.w3.org/1999/xlink" stroke-dasharray="none" shape-rendering="auto" font-family="'Dialog'" width="1340" text-rendering="auto" fill-opacity="1" contentScriptType="text/ecmascript" color-interpolation="auto" color-rendering="auto" preserveAspectRatio="xMidYMid meet" font-size="12px" xmlns:diagram="http://www.eclipse.org/sirius/diagram/1.1.0" diagram:semanticRoot="platform:/resource/fr.n7.chaiseMinute.samples/ExempleComplique.cml#/" viewBox="0 0 1340 301" fill="black" stroke="black" image-rendering="auto" stroke-miterlimit="10" zoomAndPan="magnify" version="1.0" stroke-linecap="square" stroke-linejoin="miter" contentStyleType="text/css" font-style="normal" height="301" stroke-width="1" stroke-dashoffset="0" font-weight="normal" stroke-opacity="1">
    <!--Generated by the Batik Graphics2D SVG Generator-->
    <defs id="genericDefs"/>
    <g>
        <defs id="defs1">
            <linearGradient x1="280" x2="1071" y1="10" gradientUnits="userSpaceOnUse" y2="10" xlink:type="simple" xlink:actuate="onLoad" id="linearGradient1" xlink:show="other" spreadMethod="pad">
                <stop stop-opacity="1" stop-color="rgb(204,242,166)" offset="0%"/>
                <stop stop-opacity="1" stop-color="rgb(204,242,166)" offset="100%"/>
            </linearGradient>
            <linearGradient x1="315" x2="463" y1="45" gradientUnits="userSpaceOnUse" y2="45" xlink:type="simple" xlink:actuate="onLoad" id="linearGradient2" xlink:show="other" spreadMethod="pad">
                <stop stop-opacity="1" stop-color="rgb(246,139,139)" offset="0%"/>
                <stop stop-opacity="1" stop-color="rgb(246,139,139)" offset="100%"/>
            </linearGradient>
            <linearGradient x1="495" x2="643" y1="45" gradientUnits="userSpaceOnUse" y2="45" xlink:type="simple" xlink:actuate="onLoad" id="linearGradient3" xlink:show="other" spreadMethod="pad">
                <stop stop-opacity="1" stop-color="rgb(246,139,139)" offset="0%"/>
                <stop stop-opacity="1" stop-color="rgb(246,139,139)" offset="100%"/>
            </linearGradient>
            <linearGradient x1="705" x2="853" y1="45" gradientUnits="userSpaceOnUse" y2="45" xlink:type="simple" xlink:actuate="onLoad" id="linearGradient4" xlink:show="other" spreadMethod="pad">
                <stop stop-opacity="1" stop-color="rgb(246,139,139)" offset="0%"/>
                <stop stop-opacity="1" stop-color="rgb(246,139,139)" offset="100%"/>
            </linearGradient>
            <linearGradient x1="915" x2="1063" y1="45" gradientUnits="userSpaceOnUse" y2="45" xlink:type="simple" xlink:actuate="onLoad" id="linearGradient5" xlink:show="other" spreadMethod="pad">
                <stop stop-opacity="1" stop-color="rgb(194,239,255)" offset="0%"/>
                <stop stop-opacity="1" stop-color="rgb(194,239,255)" offset="100%"/>
            </linearGradient>
            <linearGradient x1="10" x2="1328" y1="135" gradientUnits="userSpaceOnUse" y2="135" xlink:type="simple" xlink:actuate="onLoad" id="linearGradient6" xlink:show="other" spreadMethod="pad">
                <stop stop-opacity="1" stop-color="rgb(204,242,166)" offset="0%"/>
                <stop stop-opacity="1" stop-color="rgb(204,242,166)" offset="100%"/>
            </linearGradient>
            <linearGradient x1="45" x2="193" y1="170" gradientUnits="userSpaceOnUse" y2="170" xlink:type="simple" xlink:actuate="onLoad" id="linearGradient7" xlink:show="other" spreadMethod="pad">
                <stop stop-opacity="1" stop-color="rgb(246,139,139)" offset="0%"/>
                <stop stop-opacity="1" stop-color="rgb(246,139,139)" offset="100%"/>
            </linearGradient>
            <linearGradient x1="225" x2="373" y1="170" gradientUnits="userSpaceOnUse" y2="170" xlink:type="simple" xlink:actuate="onLoad" id="linearGradient8" xlink:show="other" spreadMethod="pad">
                <stop stop-opacity="1" stop-color="rgb(246,139,139)" offset="0%"/>
                <stop stop-opacity="1" stop-color="rgb(246,139,139)" offset="100%"/>
            </linearGradient>
            <linearGradient x1="435" x2="583" y1="170" gradientUnits="userSpaceOnUse" y2="170" xlink:type="simple" xlink:actuate="onLoad" id="linearGradient9" xlink:show="other" spreadMethod="pad">
                <stop stop-opacity="1" stop-color="rgb(194,239,255)" offset="0%"/>
                <stop stop-opacity="1" stop-color="rgb(194,239,255)" offset="100%"/>
            </linearGradient>
            <linearGradient x1="645" x2="793" y1="170" gradientUnits="userSpaceOnUse" y2="170" xlink:type="simple" xlink:actuate="onLoad" id="linearGradient10" xlink:show="other" spreadMethod="pad">
                <stop stop-opacity="1" stop-color="rgb(217,196,215)" offset="0%"/>
                <stop stop-opacity="1" stop-color="rgb(217,196,215)" offset="100%"/>
            </linearGradient>
            <linearGradient x1="855" x2="1046" y1="170" gradientUnits="userSpaceOnUse" y2="170" xlink:type="simple" xlink:actuate="onLoad" id="linearGradient11" xlink:show="other" spreadMethod="pad">
                <stop stop-opacity="1" stop-color="rgb(252,233,79)" offset="0%"/>
                <stop stop-opacity="1" stop-color="rgb(252,233,79)" offset="100%"/>
            </linearGradient>
            <linearGradient x1="890" x2="1038" y1="205" gradientUnits="userSpaceOnUse" y2="205" xlink:type="simple" xlink:actuate="onLoad" id="linearGradient12" xlink:show="other" spreadMethod="pad">
                <stop stop-opacity="1" stop-color="rgb(253,206,137)" offset="0%"/>
                <stop stop-opacity="1" stop-color="rgb(253,206,137)" offset="100%"/>
            </linearGradient>
            <linearGradient x1="1095" x2="1320" y1="170" gradientUnits="userSpaceOnUse" y2="170" xlink:type="simple" xlink:actuate="onLoad" id="linearGradient13" xlink:show="other" spreadMethod="pad">
                <stop stop-opacity="1" stop-color="rgb(252,233,79)" offset="0%"/>
                <stop stop-opacity="1" stop-color="rgb(252,233,79)" offset="100%"/>
            </linearGradient>
            <linearGradient x1="1130" x2="1312" y1="205" gradientUnits="userSpaceOnUse" y2="205" xlink:type="simple" xlink:actuate="onLoad" id="linearGradient14" xlink:show="other" spreadMethod="pad">
                <stop stop-opacity="1" stop-color="rgb(253,206,137)" offset="0%"/>
                <stop stop-opacity="1" stop-color="rgb(253,206,137)" offset="100%"/>
            </linearGradient>
            <clipPath clipPathUnits="userSpaceOnUse" id="clipPath1">
                <path d="M279 9 L1074 9 L1074 124 L279 124 L279 9 Z"/>
            </clipPath>
            <clipPath clipPathUnits="userSpaceOnUse" id="clipPath2">
                <path d="M279 9 L1072 9 L1072 122 L279 122 L279 9 Z"/>
            </clipPath>
            <clipPath clipPathUnits="userSpaceOnUse" id="clipPath3">
                <path d="M652 14 L702 14 L702 34 L652 34 L652 14 Z"/>
            </clipPath>
            <clipPath clipPathUnits="userSpaceOnUse" id="clipPath4">
                <path d="M314 44 L466 44 L466 116 L314 116 L314 44 Z"/>
            </clipPath>
            <clipPath clipPathUnits="userSpaceOnUse" id="clipPath5">
                <path d="M314 44 L464 44 L464 114 L314 114 L314 44 Z"/>
            </clipPath>
            <clipPath clipPathUnits="userSpaceOnUse" id="clipPath6">
                <path d="M382 49 L400 49 L400 69 L382 69 L382 49 Z"/>
            </clipPath>
            <clipPath clipPathUnits="userSpaceOnUse" id="clipPath7">
                <path d="M494 44 L646 44 L646 116 L494 116 L494 44 Z"/>
            </clipPath>
            <clipPath clipPathUnits="userSpaceOnUse" id="clipPath8">
                <path d="M494 44 L644 44 L644 114 L494 114 L494 44 Z"/>
            </clipPath>
            <clipPath clipPathUnits="userSpaceOnUse" id="clipPath9">
                <path d="M563 49 L580 49 L580 69 L563 69 L563 49 Z"/>
            </clipPath>
            <clipPath clipPathUnits="userSpaceOnUse" id="clipPath10">
                <path d="M704 44 L856 44 L856 116 L704 116 L704 44 Z"/>
            </clipPath>
            <clipPath clipPathUnits="userSpaceOnUse" id="clipPath11">
                <path d="M704 44 L854 44 L854 114 L704 114 L704 44 Z"/>
            </clipPath>
            <clipPath clipPathUnits="userSpaceOnUse" id="clipPath12">
                <path d="M773 49 L790 49 L790 69 L773 69 L773 49 Z"/>
            </clipPath>
            <clipPath clipPathUnits="userSpaceOnUse" id="clipPath13">
                <path d="M914 44 L1066 44 L1066 116 L914 116 L914 44 Z"/>
            </clipPath>
            <clipPath clipPathUnits="userSpaceOnUse" id="clipPath14">
                <path d="M914 44 L1064 44 L1064 114 L914 114 L914 44 Z"/>
            </clipPath>
            <clipPath clipPathUnits="userSpaceOnUse" id="clipPath15">
                <path d="M968 49 L1012 49 L1012 69 L968 69 L968 49 Z"/>
            </clipPath>
            <clipPath clipPathUnits="userSpaceOnUse" id="clipPath16">
                <path d="M9 134 L1331 134 L1331 292 L9 292 L9 134 Z"/>
            </clipPath>
            <clipPath clipPathUnits="userSpaceOnUse" id="clipPath17">
                <path d="M9 134 L1329 134 L1329 290 L9 290 L9 134 Z"/>
            </clipPath>
            <clipPath clipPathUnits="userSpaceOnUse" id="clipPath18">
                <path d="M645 139 L695 139 L695 159 L645 159 L645 139 Z"/>
            </clipPath>
            <clipPath clipPathUnits="userSpaceOnUse" id="clipPath19">
                <path d="M44 169 L196 169 L196 241 L44 241 L44 169 Z"/>
            </clipPath>
            <clipPath clipPathUnits="userSpaceOnUse" id="clipPath20">
                <path d="M44 169 L194 169 L194 239 L44 239 L44 169 Z"/>
            </clipPath>
            <clipPath clipPathUnits="userSpaceOnUse" id="clipPath21">
                <path d="M112 174 L130 174 L130 194 L112 194 L112 174 Z"/>
            </clipPath>
            <clipPath clipPathUnits="userSpaceOnUse" id="clipPath22">
                <path d="M224 169 L376 169 L376 241 L224 241 L224 169 Z"/>
            </clipPath>
            <clipPath clipPathUnits="userSpaceOnUse" id="clipPath23">
                <path d="M224 169 L374 169 L374 239 L224 239 L224 169 Z"/>
            </clipPath>
            <clipPath clipPathUnits="userSpaceOnUse" id="clipPath24">
                <path d="M293 174 L310 174 L310 194 L293 194 L293 174 Z"/>
            </clipPath>
            <clipPath clipPathUnits="userSpaceOnUse" id="clipPath25">
                <path d="M434 169 L586 169 L586 241 L434 241 L434 169 Z"/>
            </clipPath>
            <clipPath clipPathUnits="userSpaceOnUse" id="clipPath26">
                <path d="M434 169 L584 169 L584 239 L434 239 L434 169 Z"/>
            </clipPath>
            <clipPath clipPathUnits="userSpaceOnUse" id="clipPath27">
                <path d="M488 174 L532 174 L532 194 L488 194 L488 174 Z"/>
            </clipPath>
            <clipPath clipPathUnits="userSpaceOnUse" id="clipPath28">
                <path d="M644 169 L796 169 L796 241 L644 241 L644 169 Z"/>
            </clipPath>
            <clipPath clipPathUnits="userSpaceOnUse" id="clipPath29">
                <path d="M644 169 L794 169 L794 239 L644 239 L644 169 Z"/>
            </clipPath>
            <clipPath clipPathUnits="userSpaceOnUse" id="clipPath30">
                <path d="M669 174 L773 174 L773 212 L669 212 L669 174 Z"/>
            </clipPath>
            <clipPath clipPathUnits="userSpaceOnUse" id="clipPath31">
                <path d="M669 174 L771 174 L771 212 L669 212 L669 174 Z"/>
            </clipPath>
            <clipPath clipPathUnits="userSpaceOnUse" id="clipPath32">
                <path d="M854 169 L1049 169 L1049 284 L854 284 L854 169 Z"/>
            </clipPath>
            <clipPath clipPathUnits="userSpaceOnUse" id="clipPath33">
                <path d="M854 169 L1047 169 L1047 282 L854 282 L854 169 Z"/>
            </clipPath>
            <clipPath clipPathUnits="userSpaceOnUse" id="clipPath34">
                <path d="M933 174 L972 174 L972 194 L933 194 L933 174 Z"/>
            </clipPath>
            <clipPath clipPathUnits="userSpaceOnUse" id="clipPath35">
                <path d="M889 204 L1041 204 L1041 276 L889 276 L889 204 Z"/>
            </clipPath>
            <clipPath clipPathUnits="userSpaceOnUse" id="clipPath36">
                <path d="M889 204 L1039 204 L1039 274 L889 274 L889 204 Z"/>
            </clipPath>
            <clipPath clipPathUnits="userSpaceOnUse" id="clipPath37">
                <path d="M941 209 L991 209 L991 229 L941 229 L941 209 Z"/>
            </clipPath>
            <clipPath clipPathUnits="userSpaceOnUse" id="clipPath38">
                <path d="M1094 169 L1323 169 L1323 284 L1094 284 L1094 169 Z"/>
            </clipPath>
            <clipPath clipPathUnits="userSpaceOnUse" id="clipPath39">
                <path d="M1094 169 L1321 169 L1321 282 L1094 282 L1094 169 Z"/>
            </clipPath>
            <clipPath clipPathUnits="userSpaceOnUse" id="clipPath40">
                <path d="M1174 174 L1243 174 L1243 194 L1174 194 L1174 174 Z"/>
            </clipPath>
            <clipPath clipPathUnits="userSpaceOnUse" id="clipPath41">
                <path d="M1129 204 L1315 204 L1315 276 L1129 276 L1129 204 Z"/>
            </clipPath>
            <clipPath clipPathUnits="userSpaceOnUse" id="clipPath42">
                <path d="M1129 204 L1313 204 L1313 274 L1129 274 L1129 204 Z"/>
            </clipPath>
            <clipPath clipPathUnits="userSpaceOnUse" id="clipPath43">
                <path d="M1130 209 L1316 209 L1316 229 L1130 229 L1130 209 Z"/>
            </clipPath>
        </defs>
        <g font-size="15px" fill="rgb(131,122,133)" font-family="'Ubuntu'" stroke-linejoin="round" stroke="rgb(131,122,133)" stroke-width="0" stroke-miterlimit="0">
            <rect x="281" y="11" clip-path="url(#clipPath1)" width="791" rx="0" opacity="0.255" ry="0" height="111" stroke="none"/>
            <rect x="282" y="12" clip-path="url(#clipPath1)" width="791" rx="0" opacity="0.255" ry="0" height="111" stroke="none"/>
            <rect x="280" y="10" clip-path="url(#clipPath2)" fill="url(#linearGradient1)" width="791" rx="0" ry="0" height="111" stroke="none"/>
        </g>
        <g font-size="15px" stroke-width="1.1" font-family="'Ubuntu'" stroke-linecap="butt">
            <rect x="280" y="10" clip-path="url(#clipPath2)" fill="none" width="790" rx="0" ry="0" height="110"/>
            <text x="653" xml:space="preserve" y="29" clip-path="url(#clipPath3)" stroke="none">table1</text>
            <rect x="316" y="46" clip-path="url(#clipPath4)" fill="rgb(131,122,133)" width="148" rx="0" opacity="0.255" ry="0" height="68" stroke="none"/>
            <rect x="317" y="47" clip-path="url(#clipPath4)" fill="rgb(131,122,133)" width="148" rx="0" opacity="0.255" ry="0" height="68" stroke="none"/>
            <rect x="315" y="45" clip-path="url(#clipPath5)" fill="url(#linearGradient2)" width="148" rx="0" ry="0" height="68" stroke="none"/>
            <rect x="315" y="45" clip-path="url(#clipPath5)" fill="none" width="147" rx="0" ry="0" height="67"/>
            <text x="383" xml:space="preserve" y="64" clip-path="url(#clipPath6)" stroke="none">A</text>
            <rect x="496" y="46" clip-path="url(#clipPath7)" fill="rgb(131,122,133)" width="148" rx="0" opacity="0.255" ry="0" height="68" stroke="none"/>
            <rect x="497" y="47" clip-path="url(#clipPath7)" fill="rgb(131,122,133)" width="148" rx="0" opacity="0.255" ry="0" height="68" stroke="none"/>
            <rect x="495" y="45" clip-path="url(#clipPath8)" fill="url(#linearGradient3)" width="148" rx="0" ry="0" height="68" stroke="none"/>
            <rect x="495" y="45" clip-path="url(#clipPath8)" fill="none" width="147" rx="0" ry="0" height="67"/>
            <text x="564" xml:space="preserve" y="64" clip-path="url(#clipPath9)" stroke="none">B</text>
            <rect x="706" y="46" clip-path="url(#clipPath10)" fill="rgb(131,122,133)" width="148" rx="0" opacity="0.255" ry="0" height="68" stroke="none"/>
            <rect x="707" y="47" clip-path="url(#clipPath10)" fill="rgb(131,122,133)" width="148" rx="0" opacity="0.255" ry="0" height="68" stroke="none"/>
            <rect x="705" y="45" clip-path="url(#clipPath11)" fill="url(#linearGradient4)" width="148" rx="0" ry="0" height="68" stroke="none"/>
            <rect x="705" y="45" clip-path="url(#clipPath11)" fill="none" width="147" rx="0" ry="0" height="67"/>
            <text x="774" xml:space="preserve" y="64" clip-path="url(#clipPath12)" stroke="none">C</text>
            <rect x="916" y="46" clip-path="url(#clipPath13)" fill="rgb(131,122,133)" width="148" rx="0" opacity="0.255" ry="0" height="68" stroke="none"/>
            <rect x="917" y="47" clip-path="url(#clipPath13)" fill="rgb(131,122,133)" width="148" rx="0" opacity="0.255" ry="0" height="68" stroke="none"/>
            <rect x="915" y="45" clip-path="url(#clipPath14)" fill="url(#linearGradient5)" width="148" rx="0" ry="0" height="68" stroke="none"/>
            <rect x="915" y="45" clip-path="url(#clipPath14)" fill="none" width="147" rx="0" ry="0" height="67"/>
            <text x="969" xml:space="preserve" y="64" clip-path="url(#clipPath15)" stroke="none">index</text>
            <rect x="11" y="136" clip-path="url(#clipPath16)" fill="rgb(131,122,133)" width="1318" rx="0" opacity="0.255" ry="0" height="154" stroke="none"/>
            <rect x="12" y="137" clip-path="url(#clipPath16)" fill="rgb(131,122,133)" width="1318" rx="0" opacity="0.255" ry="0" height="154" stroke="none"/>
            <rect x="10" y="135" clip-path="url(#clipPath17)" fill="url(#linearGradient6)" width="1318" rx="0" ry="0" height="154" stroke="none"/>
            <rect x="10" y="135" clip-path="url(#clipPath17)" fill="none" width="1317" rx="0" ry="0" height="153"/>
            <text x="646" xml:space="preserve" y="154" clip-path="url(#clipPath18)" stroke="none">table2</text>
            <rect x="46" y="171" clip-path="url(#clipPath19)" fill="rgb(131,122,133)" width="148" rx="0" opacity="0.255" ry="0" height="68" stroke="none"/>
            <rect x="47" y="172" clip-path="url(#clipPath19)" fill="rgb(131,122,133)" width="148" rx="0" opacity="0.255" ry="0" height="68" stroke="none"/>
            <rect x="45" y="170" clip-path="url(#clipPath20)" fill="url(#linearGradient7)" width="148" rx="0" ry="0" height="68" stroke="none"/>
            <rect x="45" y="170" clip-path="url(#clipPath20)" fill="none" width="147" rx="0" ry="0" height="67"/>
            <text x="113" xml:space="preserve" y="189" clip-path="url(#clipPath21)" stroke="none">A</text>
            <rect x="226" y="171" clip-path="url(#clipPath22)" fill="rgb(131,122,133)" width="148" rx="0" opacity="0.255" ry="0" height="68" stroke="none"/>
            <rect x="227" y="172" clip-path="url(#clipPath22)" fill="rgb(131,122,133)" width="148" rx="0" opacity="0.255" ry="0" height="68" stroke="none"/>
            <rect x="225" y="170" clip-path="url(#clipPath23)" fill="url(#linearGradient8)" width="148" rx="0" ry="0" height="68" stroke="none"/>
            <rect x="225" y="170" clip-path="url(#clipPath23)" fill="none" width="147" rx="0" ry="0" height="67"/>
            <text x="294" xml:space="preserve" y="189" clip-path="url(#clipPath24)" stroke="none">B</text>
            <rect x="436" y="171" clip-path="url(#clipPath25)" fill="rgb(131,122,133)" width="148" rx="0" opacity="0.255" ry="0" height="68" stroke="none"/>
            <rect x="437" y="172" clip-path="url(#clipPath25)" fill="rgb(131,122,133)" width="148" rx="0" opacity="0.255" ry="0" height="68" stroke="none"/>
            <rect x="435" y="170" clip-path="url(#clipPath26)" fill="url(#linearGradient9)" width="148" rx="0" ry="0" height="68" stroke="none"/>
            <rect x="435" y="170" clip-path="url(#clipPath26)" fill="none" width="147" rx="0" ry="0" height="67"/>
            <text x="489" xml:space="preserve" y="189" clip-path="url(#clipPath27)" stroke="none">index</text>
            <rect x="646" y="171" clip-path="url(#clipPath28)" fill="rgb(131,122,133)" width="148" rx="0" opacity="0.255" ry="0" height="68" stroke="none"/>
            <rect x="647" y="172" clip-path="url(#clipPath28)" fill="rgb(131,122,133)" width="148" rx="0" opacity="0.255" ry="0" height="68" stroke="none"/>
            <rect x="645" y="170" clip-path="url(#clipPath29)" fill="url(#linearGradient10)" width="148" rx="0" ry="0" height="68" stroke="none"/>
            <rect x="645" y="170" clip-path="url(#clipPath29)" fill="none" width="147" rx="0" ry="0" height="67"/>
            <text font-style="italic" x="670" xml:space="preserve" y="189" clip-path="url(#clipPath30)" stroke="none">C</text>
            <text font-style="italic" x="670" xml:space="preserve" y="207" clip-path="url(#clipPath31)" stroke="none">from table1.A</text>
            <rect x="856" y="171" clip-path="url(#clipPath32)" fill="rgb(131,122,133)" width="191" rx="0" opacity="0.255" ry="0" height="111" stroke="none"/>
            <rect x="857" y="172" clip-path="url(#clipPath32)" fill="rgb(131,122,133)" width="191" rx="0" opacity="0.255" ry="0" height="111" stroke="none"/>
            <rect x="855" y="170" clip-path="url(#clipPath33)" fill="url(#linearGradient11)" width="191" rx="0" ry="0" height="111" stroke="none"/>
            <rect x="855" y="170" clip-path="url(#clipPath33)" fill="none" width="190" rx="0" ry="0" height="110"/>
            <text x="934" xml:space="preserve" y="189" clip-path="url(#clipPath34)" stroke="none">Sum</text>
            <rect x="891" y="206" clip-path="url(#clipPath35)" fill="rgb(131,122,133)" width="148" rx="0" opacity="0.255" ry="0" height="68" stroke="none"/>
            <rect x="892" y="207" clip-path="url(#clipPath35)" fill="rgb(131,122,133)" width="148" rx="0" opacity="0.255" ry="0" height="68" stroke="none"/>
            <rect x="890" y="205" clip-path="url(#clipPath36)" fill="url(#linearGradient12)" width="148" rx="0" ry="0" height="68" stroke="none"/>
            <rect x="890" y="205" clip-path="url(#clipPath36)" fill="none" width="147" rx="0" ry="0" height="67"/>
            <text x="942" xml:space="preserve" y="224" clip-path="url(#clipPath37)" stroke="none">[SUM]</text>
            <rect x="1096" y="171" clip-path="url(#clipPath38)" fill="rgb(131,122,133)" width="225" rx="0" opacity="0.255" ry="0" height="111" stroke="none"/>
            <rect x="1097" y="172" clip-path="url(#clipPath38)" fill="rgb(131,122,133)" width="225" rx="0" opacity="0.255" ry="0" height="111" stroke="none"/>
            <rect x="1095" y="170" clip-path="url(#clipPath39)" fill="url(#linearGradient13)" width="225" rx="0" ry="0" height="111" stroke="none"/>
            <rect x="1095" y="170" clip-path="url(#clipPath39)" fill="none" width="224" rx="0" ry="0" height="110"/>
            <text x="1175" xml:space="preserve" y="189" clip-path="url(#clipPath40)" stroke="none">Variation</text>
            <rect x="1131" y="206" clip-path="url(#clipPath41)" fill="rgb(131,122,133)" width="182" rx="0" opacity="0.255" ry="0" height="68" stroke="none"/>
            <rect x="1132" y="207" clip-path="url(#clipPath41)" fill="rgb(131,122,133)" width="182" rx="0" opacity="0.255" ry="0" height="68" stroke="none"/>
            <rect x="1130" y="205" clip-path="url(#clipPath42)" fill="url(#linearGradient14)" width="182" rx="0" ry="0" height="68" stroke="none"/>
            <rect x="1130" y="205" clip-path="url(#clipPath42)" fill="none" width="181" rx="0" ry="0" height="67"/>
            <text x="1131" xml:space="preserve" y="224" clip-path="url(#clipPath43)" stroke="none">[VARIATION, VARIATION]</text>
        </g>
    </g>
</svg>
