<?xml version="1.0" encoding="UTF-8"?><svg xmlns="http://www.w3.org/2000/svg" xmlns:xlink="http://www.w3.org/1999/xlink" stroke-dasharray="none" shape-rendering="auto" font-family="'Dialog'" width="666" text-rendering="auto" fill-opacity="1" contentScriptType="text/ecmascript" color-interpolation="auto" color-rendering="auto" preserveAspectRatio="xMidYMid meet" font-size="12px" xmlns:diagram="http://www.eclipse.org/sirius/diagram/1.1.0" diagram:semanticRoot="platform:/resource/fr.n7.chaiseMinute.calculus.v2samples/Mean.clc#/" viewBox="0 0 666 220" fill="black" stroke="black" image-rendering="auto" stroke-miterlimit="10" zoomAndPan="magnify" version="1.0" stroke-linecap="square" stroke-linejoin="miter" contentStyleType="text/css" font-style="normal" height="220" stroke-width="1" stroke-dashoffset="0" font-weight="normal" stroke-opacity="1">
    <!--Generated by the Batik Graphics2D SVG Generator-->
    <defs id="genericDefs"/>
    <g>
        <defs id="defs1">
            <clipPath clipPathUnits="userSpaceOnUse" id="clipPath1">
                <path d="M9 12 L60 12 L60 63 L9 63 L9 12 Z"/>
            </clipPath>
            <clipPath clipPathUnits="userSpaceOnUse" id="clipPath2">
                <path d="M9 12 L63 12 L63 63 L9 63 L9 12 Z"/>
            </clipPath>
            <clipPath clipPathUnits="userSpaceOnUse" id="clipPath3">
                <path d="M9 104 L100 104 L100 163 L9 163 L9 104 Z"/>
            </clipPath>
            <clipPath clipPathUnits="userSpaceOnUse" id="clipPath4">
                <path d="M9 104 L104 104 L104 163 L9 163 L9 104 Z"/>
            </clipPath>
            <clipPath clipPathUnits="userSpaceOnUse" id="clipPath5">
                <path d="M181 48 L252 48 L252 107 L181 107 L181 48 Z"/>
            </clipPath>
            <clipPath clipPathUnits="userSpaceOnUse" id="clipPath6">
                <path d="M181 48 L256 48 L256 107 L181 107 L181 48 Z"/>
            </clipPath>
            <clipPath clipPathUnits="userSpaceOnUse" id="clipPath7">
                <path d="M377 68 L409 68 L409 100 L377 100 L377 68 Z"/>
            </clipPath>
            <clipPath clipPathUnits="userSpaceOnUse" id="clipPath8">
                <path d="M377 68 L412 68 L412 100 L377 100 L377 68 Z"/>
            </clipPath>
            <clipPath clipPathUnits="userSpaceOnUse" id="clipPath9">
                <path d="M501 104 L533 104 L533 136 L501 136 L501 104 Z"/>
            </clipPath>
            <clipPath clipPathUnits="userSpaceOnUse" id="clipPath10">
                <path d="M501 104 L537 104 L537 136 L501 136 L501 104 Z"/>
            </clipPath>
            <clipPath clipPathUnits="userSpaceOnUse" id="clipPath11">
                <path d="M625 84 L657 84 L657 116 L625 116 L625 84 Z"/>
            </clipPath>
            <clipPath clipPathUnits="userSpaceOnUse" id="clipPath12">
                <path d="M625 84 L660 84 L660 116 L625 116 L625 84 Z"/>
            </clipPath>
            <clipPath clipPathUnits="userSpaceOnUse" id="clipPath13">
                <path d="M269 176 L324 176 L324 211 L269 211 L269 176 Z"/>
            </clipPath>
            <clipPath clipPathUnits="userSpaceOnUse" id="clipPath14">
                <path d="M269 176 L326 176 L326 211 L269 211 L269 176 Z"/>
            </clipPath>
            <clipPath clipPathUnits="userSpaceOnUse" id="clipPath15">
                <path d="M-1 -1 L667 -1 L667 221 L-1 221 L-1 -1 Z"/>
            </clipPath>
            <clipPath clipPathUnits="userSpaceOnUse" id="clipPath16">
                <path d="M302 66 L330 66 L330 82 L302 82 L302 66 Z"/>
            </clipPath>
            <clipPath clipPathUnits="userSpaceOnUse" id="clipPath17">
                <path d="M369 79 L381 79 L381 90 L369 90 L369 79 Z"/>
            </clipPath>
            <clipPath clipPathUnits="userSpaceOnUse" id="clipPath18">
                <path d="M564 93 L595 93 L595 109 L564 109 L564 93 Z"/>
            </clipPath>
            <clipPath clipPathUnits="userSpaceOnUse" id="clipPath19">
                <path d="M617 98 L629 98 L629 108 L617 108 L617 98 Z"/>
            </clipPath>
            <clipPath clipPathUnits="userSpaceOnUse" id="clipPath20">
                <path d="M443 84 L475 84 L475 100 L443 100 L443 84 Z"/>
            </clipPath>
            <clipPath clipPathUnits="userSpaceOnUse" id="clipPath21">
                <path d="M492 110 L505 110 L505 121 L492 121 L492 110 Z"/>
            </clipPath>
            <clipPath clipPathUnits="userSpaceOnUse" id="clipPath22">
                <path d="M116 90 L159 90 L159 106 L116 106 L116 90 Z"/>
            </clipPath>
            <clipPath clipPathUnits="userSpaceOnUse" id="clipPath23">
                <path d="M172 87 L185 87 L185 98 L172 98 L172 87 Z"/>
            </clipPath>
            <clipPath clipPathUnits="userSpaceOnUse" id="clipPath24">
                <path d="M106 32 L146 32 L146 48 L106 48 L106 32 Z"/>
            </clipPath>
            <clipPath clipPathUnits="userSpaceOnUse" id="clipPath25">
                <path d="M172 66 L185 66 L185 76 L172 76 L172 66 Z"/>
            </clipPath>
            <clipPath clipPathUnits="userSpaceOnUse" id="clipPath26">
                <path d="M319 118 L349 118 L349 134 L319 134 L319 118 Z"/>
            </clipPath>
            <clipPath clipPathUnits="userSpaceOnUse" id="clipPath27">
                <path d="M369 87 L381 87 L381 99 L369 99 L369 87 Z"/>
            </clipPath>
        </defs>
        <g font-size="9px" fill="white" font-family="'Ubuntu'" stroke-linejoin="round" stroke="white" stroke-width="0" stroke-miterlimit="0">
            <rect x="10" width="49" height="49" y="13" clip-path="url(#clipPath1)" stroke="none"/>
        </g>
        <g font-size="9px" stroke-width="0.1" font-family="'Ubuntu'" stroke-linecap="butt">
            <rect fill="none" x="10" width="48" height="48" y="13" clip-path="url(#clipPath1)"/>
            <text x="24" xml:space="preserve" font-size="12px" y="42" clip-path="url(#clipPath2)" stroke="none">min</text>
            <rect x="10" y="105" clip-path="url(#clipPath3)" fill="white" width="89" height="57" stroke="none"/>
            <rect fill="none" x="10" width="88" height="56" y="105" clip-path="url(#clipPath3)"/>
            <text x="42" xml:space="preserve" font-size="12px" y="138" clip-path="url(#clipPath4)" stroke="none">max</text>
            <rect x="182" y="49" clip-path="url(#clipPath5)" fill="rgb(204,242,166)" width="69" height="57" stroke="none"/>
            <rect fill="none" x="182" width="68" height="56" y="49" clip-path="url(#clipPath5)"/>
            <text x="195" xml:space="preserve" font-size="12px" y="82" clip-path="url(#clipPath6)" stroke="none">Somme</text>
            <rect x="378" y="69" clip-path="url(#clipPath7)" fill="rgb(204,242,166)" width="30" height="30" stroke="none"/>
            <rect fill="none" x="378" width="29" height="29" y="69" clip-path="url(#clipPath7)"/>
            <text x="384" xml:space="preserve" font-size="12px" y="89" clip-path="url(#clipPath8)" stroke="none">Div</text>
            <rect x="502" y="105" clip-path="url(#clipPath9)" fill="rgb(217,196,215)" width="30" height="30" stroke="none"/>
            <rect fill="none" x="502" width="29" height="29" y="105" clip-path="url(#clipPath9)"/>
            <text x="505" xml:space="preserve" font-size="12px" y="125" clip-path="url(#clipPath10)" stroke="none">Opp</text>
            <rect x="626" y="85" clip-path="url(#clipPath11)" fill="rgb(194,239,255)" width="30" height="30" stroke="none"/>
            <rect fill="none" x="626" width="29" height="29" y="85" clip-path="url(#clipPath11)"/>
            <text x="630" xml:space="preserve" font-size="12px" y="105" clip-path="url(#clipPath12)" stroke="none">Res</text>
            <rect x="270" y="177" clip-path="url(#clipPath13)" fill="rgb(253,206,137)" width="53" height="33" stroke="none"/>
            <rect fill="none" x="270" width="52" height="32" y="177" clip-path="url(#clipPath13)"/>
            <text x="279" xml:space="preserve" font-size="12px" y="198" clip-path="url(#clipPath14)" stroke="none">C : 2.0</text>
        </g>
        <g fill="rgb(136,136,136)" stroke-width="2.1" font-family="'Ubuntu'" stroke-linecap="butt" stroke="rgb(136,136,136)">
            <line y2="84" fill="none" x1="251" clip-path="url(#clipPath15)" x2="378" y1="84"/>
            <text fill="black" x="303" xml:space="preserve" y="79" clip-path="url(#clipPath16)" stroke="none">S2D</text>
            <line y2="84" fill="none" x1="371" clip-path="url(#clipPath17)" x2="378" y1="87"/>
            <line y2="81" fill="none" x1="378" clip-path="url(#clipPath17)" x2="371" y1="84"/>
            <line y2="101" fill="none" x1="532" clip-path="url(#clipPath15)" x2="626" y1="121"/>
            <text fill="black" x="565" xml:space="preserve" y="106" clip-path="url(#clipPath18)" stroke="none">O2R</text>
            <line y2="101" fill="none" x1="620" clip-path="url(#clipPath19)" x2="626" y1="105"/>
            <line y2="100" fill="none" x1="626" clip-path="url(#clipPath19)" x2="619" y1="101"/>
            <line y2="117" fill="none" x1="408" clip-path="url(#clipPath15)" x2="502" y1="85"/>
            <text fill="black" x="444" xml:space="preserve" y="97" clip-path="url(#clipPath20)" stroke="none">D2O</text>
            <line y2="117" fill="none" x1="494" clip-path="url(#clipPath21)" x2="502" y1="118"/>
            <line y2="112" fill="none" x1="502" clip-path="url(#clipPath21)" x2="496" y1="117"/>
            <line y2="89" fill="none" x1="99" clip-path="url(#clipPath15)" x2="182" y1="125"/>
            <text fill="black" x="117" xml:space="preserve" y="103" clip-path="url(#clipPath22)" stroke="none">max2S</text>
            <line y2="89" fill="none" x1="177" clip-path="url(#clipPath23)" x2="182" y1="95"/>
            <line y2="89" fill="none" x1="182" clip-path="url(#clipPath23)" x2="174" y1="89"/>
            <line y2="73" fill="none" x1="59" clip-path="url(#clipPath15)" x2="182" y1="25"/>
            <text fill="black" x="107" xml:space="preserve" y="45" clip-path="url(#clipPath24)" stroke="none">min2S</text>
            <line y2="73" fill="none" x1="174" clip-path="url(#clipPath25)" x2="182" y1="73"/>
            <line y2="68" fill="none" x1="182" clip-path="url(#clipPath25)" x2="177" y1="73"/>
            <line y2="89" fill="none" x1="302" clip-path="url(#clipPath15)" x2="378" y1="177"/>
            <text fill="black" x="320" xml:space="preserve" y="131" clip-path="url(#clipPath26)" stroke="none">C2D</text>
            <line y2="89" fill="none" x1="376" clip-path="url(#clipPath27)" x2="378" y1="96"/>
            <line y2="92" fill="none" x1="378" clip-path="url(#clipPath27)" x2="371" y1="89"/>
        </g>
    </g>
</svg>
